<svg width="22" height="26" viewBox="0 0 22 26" fill="none" xmlns="http://www.w3.org/2000/svg">
<path d="M17.3125 8.3125V6.75C17.3125 3.30371 14.5087 0.5 11.0625 0.5C7.61621 0.5 4.8125 3.30371 4.8125 6.75V8.3125H0.125V21.5938C0.125 23.7511 1.87388 25.5 4.03125 25.5H18.0938C20.2511 25.5 22 23.7511 22 21.5938V8.3125H17.3125ZM7.9375 6.75C7.9375 5.02686 9.33936 3.625 11.0625 3.625C12.7856 3.625 14.1875 5.02686 14.1875 6.75V8.3125H7.9375V6.75ZM15.75 12.6094C15.1028 12.6094 14.5781 12.0847 14.5781 11.4375C14.5781 10.7903 15.1028 10.2656 15.75 10.2656C16.3972 10.2656 16.9219 10.7903 16.9219 11.4375C16.9219 12.0847 16.3972 12.6094 15.75 12.6094ZM6.375 12.6094C5.72778 12.6094 5.20312 12.0847 5.20312 11.4375C5.20312 10.7903 5.72778 10.2656 6.375 10.2656C7.02222 10.2656 7.54688 10.7903 7.54688 11.4375C7.54688 12.0847 7.02222 12.6094 6.375 12.6094Z" fill="black"/>
</svg>
